<svg width="18" height="18" viewBox="0 0 18 18" fill="none" xmlns="http://www.w3.org/2000/svg">
<path d="M9 1.5C4.86064 1.5 1.5 4.86064 1.5 9C1.5 13.1394 4.86064 16.5 9 16.5C13.1394 16.5 16.5 13.1394 16.5 9C16.5 4.86064 13.1394 1.5 9 1.5" stroke="#0B1221" stroke-width="1.5" stroke-linecap="round" stroke-linejoin="round"/>
<path d="M3.6975 3.6975L6.8775 6.8775M11.1225 6.8775L14.3025 3.6975M11.1225 11.1225L14.3025 14.3025M6.8775 11.1225L3.6975 14.3025" stroke="#0B1221" stroke-width="1.5" stroke-linecap="round" stroke-linejoin="round"/>
<path d="M9 6C7.34425 6 6 7.34425 6 9C6 10.6557 7.34425 12 9 12C10.6557 12 12 10.6557 12 9C12 7.34425 10.6557 6 9 6" stroke="#0B1221" stroke-width="1.5" stroke-linecap="round" stroke-linejoin="round"/>
</svg>
