<svg width="16" height="16" viewBox="0 0 16 16" fill="none" xmlns="http://www.w3.org/2000/svg">
<path d="M7.33333 10H8.66667C9.40255 10 10 9.40255 10 8.66667C10 7.93078 9.40255 7.33333 8.66667 7.33333H6.66667C6.26667 7.33333 5.93333 7.46667 5.73333 7.73333L2 11.3333" stroke="#0B1221" stroke-width="1.33333" stroke-linecap="round" stroke-linejoin="round"/>
<path d="M4.66667 14L5.73333 13.0667C5.93333 12.8 6.26667 12.6667 6.66667 12.6667H9.33333C10.0667 12.6667 10.7333 12.4 11.2 11.8667L14.2667 8.93333C14.802 8.42741 14.8259 7.58202 14.32 7.04667C13.8141 6.51131 12.9687 6.48741 12.4333 6.99333L9.63333 9.59333M1.33333 10.6667L5.33333 14.6667" stroke="#0B1221" stroke-width="1.33333" stroke-linecap="round" stroke-linejoin="round"/>
<path d="M8.73333 6C8.73333 6.69071 9.10182 7.32896 9.7 7.67432C10.2982 8.01967 11.0352 8.01967 11.6333 7.67432C12.2315 7.32896 12.6 6.69071 12.6 6C12.6 4.93296 11.7337 4.06667 10.6667 4.06667C9.59963 4.06667 8.73333 4.93296 8.73333 6" stroke="#0B1221" stroke-width="1.33333" stroke-linecap="round" stroke-linejoin="round"/>
<path d="M2 3.33333C2 4.43716 2.89617 5.33333 4 5.33333C5.10383 5.33333 6 4.43716 6 3.33333C6 2.2295 5.10383 1.33333 4 1.33333C2.89617 1.33333 2 2.2295 2 3.33333" stroke="#0B1221" stroke-width="1.33333" stroke-linecap="round" stroke-linejoin="round"/>
</svg>
