<svg width="18" height="18" viewBox="0 0 18 18" fill="none" xmlns="http://www.w3.org/2000/svg">
<g clip-path="url(#clip0_473_3340)">
<path d="M6.89803 7.5C6.74885 7.5 6.60577 7.55926 6.50028 7.66475C6.39479 7.77024 6.33553 7.91332 6.33553 8.0625C6.33553 8.21168 6.39479 8.35476 6.50028 8.46025C6.60577 8.56574 6.74885 8.625 6.89803 8.625H11.773C11.9222 8.625 12.0653 8.56574 12.1708 8.46025C12.2763 8.35476 12.3355 8.21168 12.3355 8.0625C12.3355 7.91332 12.2763 7.77024 12.1708 7.66475C12.0653 7.55926 11.9222 7.5 11.773 7.5H6.89803ZM5.11153 10.5C4.96235 10.5 4.81927 10.5593 4.71378 10.6648C4.60829 10.7702 4.54903 10.9133 4.54903 11.0625C4.54903 11.2117 4.60829 11.3548 4.71378 11.4602C4.81927 11.5657 4.96235 11.625 5.11153 11.625H9.98653C10.1357 11.625 10.2788 11.5657 10.3843 11.4602C10.4898 11.3548 10.549 11.2117 10.549 11.0625C10.549 10.9133 10.4898 10.7702 10.3843 10.6648C10.2788 10.5593 10.1357 10.5 9.98653 10.5H5.11153ZM3.92578 13.5C3.7766 13.5 3.63352 13.5593 3.52803 13.6648C3.42254 13.7702 3.36328 13.9133 3.36328 14.0625C3.36328 14.2117 3.42254 14.3548 3.52803 14.4602C3.63352 14.5657 3.7766 14.625 3.92578 14.625H8.80078C8.94997 14.625 9.09304 14.5657 9.19853 14.4602C9.30402 14.3548 9.36328 14.2117 9.36328 14.0625C9.36328 13.9133 9.30402 13.7702 9.19853 13.6648C9.09304 13.5593 8.94997 13.5 8.80078 13.5H3.92578Z" fill="#0B1221"/>
<path d="M3.0939 2.54996e-05H14.9064C15.3131 -0.00163056 15.716 0.0773935 16.0919 0.232523C16.4678 0.387652 16.8093 0.615806 17.0964 0.903776C17.3844 1.19092 17.6125 1.53233 17.7677 1.90824C17.9228 2.28416 18.0018 2.68711 18.0001 3.09378C18.0001 4.13178 17.6431 5.18928 17.1541 6.21378C16.6651 7.23753 16.0179 8.28153 15.3901 9.29178L15.3841 9.30153C14.7474 10.3275 14.1324 11.3198 13.6741 12.279C13.2136 13.2413 12.9376 14.1165 12.9376 14.9063C12.9377 15.2464 13.0258 15.5807 13.1935 15.8767C13.3612 16.1726 13.6026 16.4201 13.8944 16.5949C14.1862 16.7697 14.5182 16.866 14.8583 16.8743C15.1983 16.8826 15.5347 16.8027 15.8347 16.6423C16.1346 16.482 16.3879 16.2466 16.5698 15.9592C16.7518 15.6718 16.8561 15.3422 16.8728 15.0025C16.8894 14.6628 16.8178 14.3245 16.6648 14.0207C16.5118 13.7169 16.2827 13.4579 15.9999 13.269C15.9385 13.228 15.8858 13.1752 15.8448 13.1137C15.8037 13.0523 15.7752 12.9834 15.7608 12.9109C15.7465 12.8385 15.7465 12.7639 15.7609 12.6914C15.7754 12.619 15.804 12.5501 15.845 12.4887C15.8861 12.4272 15.9389 12.3745 16.0003 12.3335C16.0617 12.2925 16.1307 12.264 16.2031 12.2496C16.2756 12.2352 16.3502 12.2352 16.4226 12.2497C16.4951 12.2641 16.564 12.2927 16.6254 12.3338C17.1768 12.7028 17.595 13.2393 17.8183 13.8641C18.0416 14.4889 18.0582 15.169 17.8656 15.8039C17.6729 16.4388 17.2813 16.995 16.7485 17.3905C16.2157 17.7859 15.5699 17.9996 14.9064 18H3.37515C2.55463 18 1.76773 17.6741 1.18754 17.0939C0.607346 16.5137 0.281398 15.7268 0.281398 14.9063C0.281398 13.2308 1.2249 11.4143 2.2239 9.72978C2.4849 9.29028 2.7504 8.85828 3.0114 8.43378C3.6114 7.45578 4.18665 6.51903 4.6194 5.63028H2.54265C1.9254 5.63028 1.12815 5.48553 0.617398 4.85403C0.211922 4.35763 -0.00651697 3.73469 0.000148134 3.09378C0.000148134 2.27326 0.326096 1.48635 0.906286 0.906164C1.48648 0.325973 2.27338 2.54996e-05 3.0939 2.54996e-05ZM11.8126 14.9063C11.8126 13.8713 12.1696 12.8168 12.6586 11.7938C13.1454 10.7753 13.7904 9.73653 14.4159 8.72928L14.4286 8.70828C15.0654 7.68303 15.6804 6.68928 16.1386 5.72928C16.5991 4.76553 16.8751 3.88653 16.8751 3.09378C16.8761 2.83496 16.8259 2.5785 16.7273 2.3392C16.6287 2.09989 16.4837 1.88246 16.3007 1.69945C16.1177 1.51644 15.9003 1.37146 15.661 1.27287C15.4217 1.17428 15.1652 1.12403 14.9064 1.12503C14.3843 1.12503 13.8835 1.33245 13.5143 1.70166C13.1451 2.07087 12.9376 2.57163 12.9376 3.09378C12.9376 3.74253 13.2534 4.22553 13.8129 4.60053C13.9131 4.66765 13.989 4.76519 14.0295 4.87875C14.07 4.9923 14.073 5.11588 14.0379 5.23124C14.0029 5.34661 13.9317 5.44766 13.8349 5.51951C13.7381 5.59135 13.6207 5.63018 13.5001 5.63028H5.85915C5.37165 6.74253 4.64115 7.93203 3.9264 9.09453C3.6759 9.50253 3.4269 9.90678 3.1914 10.3035C2.17515 12.0188 1.4064 13.5818 1.4064 14.9063C1.4064 15.4284 1.61382 15.9292 1.98303 16.2984C2.35224 16.6676 2.853 16.875 3.37515 16.875H12.5199C12.0613 16.3216 11.8111 15.625 11.8126 14.9063ZM1.12515 3.09378C1.11765 3.47703 1.2474 3.84978 1.4904 4.14603C1.6809 4.38078 2.0454 4.50528 2.5419 4.50528H12.1869C11.9366 4.07734 11.8073 3.58948 11.8126 3.09378C11.8111 2.37504 12.0613 1.67845 12.5199 1.12503H3.0939C2.57175 1.12503 2.07099 1.33245 1.70178 1.70166C1.33257 2.07087 1.12515 2.57163 1.12515 3.09378Z" fill="#0B1221"/>
</g>
<defs>
<clipPath id="clip0_473_3340">
<rect width="18" height="18" fill="white"/>
</clipPath>
</defs>
</svg>
